<svg width="200" height="200" viewBox="0 0 200 200" fill="none" xmlns="http://www.w3.org/2000/svg">
<g clip-path="url(#clip0_49_1728)">
<rect width="200" height="200" rx="46.6667" fill="#FFFAEC"/>
<ellipse cx="131.032" cy="138.907" rx="134.557" ry="124.241" fill="#E9A301"/>
<line x1="-31.2886" y1="211.977" x2="24.7265" y2="156.355" stroke="url(#paint0_linear_49_1728)" stroke-width="17.9409" stroke-linecap="round"/>
<ellipse cx="121.613" cy="138.907" rx="125.138" ry="124.241" fill="#FFC83D"/>
<path d="M158.927 20.2204C187.97 29.209 212.321 48.3624 227.969 73.329L59.5982 246.702C33.6646 231.952 13.6634 208.295 3.63926 180.121L158.927 20.2204Z" fill="#F6C968" fill-opacity="0.26"/>
<ellipse cx="121.613" cy="138.907" rx="91.0499" ry="90.1529" fill="#AB7706"/>
<path d="M212.663 138.459C212.663 186.763 172.514 230.854 125.201 230.854C77.8879 230.854 37.2906 195.733 37.2906 147.429C37.2906 99.1253 83.2702 51.0723 130.583 51.0723C177.896 51.0723 212.663 90.1549 212.663 138.459Z" fill="#F0AC0D"/>
<rect x="76.6667" y="78" width="37.8179" height="59.8783" rx="18.9089" fill="#FFFAEC"/>
<ellipse cx="90.5817" cy="99.7822" rx="13.1312" ry="15.7575" fill="#785200"/>
<rect x="128.141" y="78" width="37.8179" height="59.8783" rx="18.9089" fill="#FFFAEC"/>
<ellipse cx="142.339" cy="99.7822" rx="13.1312" ry="15.7575" fill="#785200"/>
<path d="M168.866 144.352C171.244 143.814 173.64 145.308 173.84 147.737C174.059 150.381 173.943 153.048 173.491 155.674C172.789 159.754 171.291 163.656 169.081 167.157C166.872 170.657 163.994 173.689 160.613 176.077C157.232 178.466 153.414 180.166 149.376 181.079C145.338 181.992 141.16 182.1 137.08 181.399C133 180.697 129.099 179.199 125.598 176.989C122.097 174.78 119.066 171.902 116.677 168.521C115.139 166.345 113.887 163.987 112.947 161.506C112.083 159.227 113.603 156.848 115.98 156.31L142.423 150.331L168.866 144.352Z" fill="#785200"/>
<mask id="mask0_49_1728" style="mask-type:alpha" maskUnits="userSpaceOnUse" x="112" y="144" width="62" height="38">
<path d="M168.866 144.352C171.244 143.814 173.64 145.308 173.84 147.737C174.059 150.381 173.943 153.048 173.491 155.674C172.789 159.754 171.291 163.656 169.081 167.157C166.872 170.657 163.994 173.689 160.613 176.077C157.232 178.466 153.414 180.166 149.376 181.079C145.338 181.992 141.16 182.1 137.08 181.399C133 180.697 129.099 179.199 125.598 176.989C122.097 174.78 119.066 171.902 116.677 168.521C115.139 166.345 113.887 163.987 112.947 161.506C112.083 159.227 113.603 156.848 115.98 156.31L142.423 150.331L168.866 144.352Z" fill="#785200"/>
</mask>
<g mask="url(#mask0_49_1728)">
<path d="M132.323 202.386C129.979 203.052 127.505 201.691 127.172 199.276C126.81 196.648 126.781 193.979 127.089 191.332C127.568 187.22 128.851 183.242 130.867 179.626C132.883 176.01 135.591 172.827 138.837 170.258C142.083 167.688 145.803 165.784 149.785 164.652C153.768 163.521 157.934 163.185 162.046 163.663C166.158 164.142 170.135 165.426 173.751 167.441C177.367 169.457 180.55 172.165 183.12 175.411C184.773 177.501 186.152 179.787 187.226 182.212C188.213 184.441 186.824 186.9 184.48 187.566L158.401 194.976L132.323 202.386Z" fill="#4D3500"/>
</g>
</g>
<defs>
<linearGradient id="paint0_linear_49_1728" x1="-30.981" y1="225.018" x2="37.7649" y2="156.754" gradientUnits="userSpaceOnUse">
<stop stop-color="#F4A90A"/>
<stop offset="0.569652" stop-color="#FFE6A6"/>
</linearGradient>
<clipPath id="clip0_49_1728">
<rect width="200" height="200" rx="46.6667" fill="white"/>
</clipPath>
</defs>
</svg>
